# xmcd CD database file
#
# Track frame offsets:
#	150
#	12613
#	24868
#	35663
#	48700
#	60265
#	72173
#	87238
#	99913
#	112288
#	128518
#	140380
#
# Disc length: 2089 seconds
#
# Revision: 0
# Processed by: cddbd v1.5PL3 Copyright (c) Steve Scherf et al.
# Submitted via: CDex 1.40Release
#
DISCID=9d08270c
DTITLE=ジャッキー吉川とブルーコメッツ - ジャッキー吉川とブルーコメッツ ベスト・セレクション
DYEAR=1995
DGENRE=Other
TTITLE0=ブルー・シャトウ
TTITLE1=青い瞳
TTITLE2=青い渚
TTITLE3=マリアの泉
TTITLE4=北国の二人
TTITLE5=こころの虹
TTITLE6=白鳥の歌
TTITLE7=草原の輝き
TTITLE8=さよならのあとで
TTITLE9=雨の赤坂
TTITLE10=それはキッスで始まった
TTITLE11=希望にみちた二人のために
EXTD=YEAR: 1995 ID3G: 12
EXTT0=
EXTT1=
EXTT2=
EXTT3=
EXTT4=
EXTT5=
EXTT6=
EXTT7=
EXTT8=
EXTT9=
EXTT10=
EXTT11=
PLAYORDER=
